<?xml version="1.0" encoding="UTF-8"?>
<svg id="Capa_1" data-name="Capa 1" xmlns="http://www.w3.org/2000/svg" viewBox="0 0 183 179">
  <defs>
    <style>
      .cls-1 {
        fill: #3072e3;
      }
    </style>
  </defs>
  <path class="cls-1" d="M104.97,110.66c-5.74,5.57-14.98,5.17-20.35-.23l-14.79-14.88c-3.12-3.14-6.73-5.91-9.03-9.86-3.81-6.55-2.06-14.97,3.65-19.45s14.29-4.74,19.67.57l10.52,10.39c1.56-1.25,2.89-2.51,4.27-3.89l40.13-40.24c1.41-1.41,4.6-2.65,6.32-2.55,3.45.19,5.69,2.69,7.86,4.75,6.59,6.24,12.34,14.67,15.48,23.17,3.78,10.23,5.48,18.58,5.51,29.56.11,41.77-31.2,77.04-72.52,81.77-6.36.73-13,.71-19.37-.01-32.51-3.69-59.53-26.64-68.99-57.69-1.13-3.71-1.86-6.79-2.43-10.62-4.39-29.31,5.56-56.67,28.05-76.04C56.87,9.95,80.48,3.57,104.05,6.86c12.73,1.9,24.48,6.42,35.61,14.3l-20.95,21.11c-7.06-3.74-14.46-6.17-22.5-6.87-2.81-.42-5.6-.43-8.43.02-14.85,1.23-28.05,8.37-37.31,20.01-16.08,20.23-15.01,49.12,2.41,68.37,12.77,14.12,32.14,20.12,51.01,15.94,8.98-1.99,16.96-6.43,23.84-12.58,13.03-11.64,19.8-30.95,16.33-48.23-.36-1.77-.53-2.89-1.39-4.7-2.01,1.55-2.94,2.55-4.43,4.01l-17.19,16.83-16.09,15.6Z"/>
</svg>